<svg xmlns="http://www.w3.org/2000/svg" xmlns:xlink="http://www.w3.org/1999/xlink" version="1.1" width="1000" height="700" viewBox="0 0 1000 700" xml:space="preserve">
<desc>Created with Fabric.js 3.5.0</desc>
<defs>
</defs>
<rect x="0" y="0" width="100%" height="100%" fill="#ffffff"/>
<g transform="matrix(1.5214 0 0 1.5214 499.9968 202.8261)" id="465843">
<g style="" vector-effect="non-scaling-stroke">
		<g transform="matrix(1 0 0 1 -127.2125 -67.1701)" id="954627">
<path style="stroke: none; stroke-width: 1; stroke-dasharray: none; stroke-linecap: butt; stroke-dashoffset: 0; stroke-linejoin: miter; stroke-miterlimit: 4; is-custom-font: none; font-file-url: none; fill: rgb(35,31,32); fill-rule: nonzero; opacity: 1;" transform=" translate(-175.6446, -485.1921)" d="m 226.87211 425.05929 l -30.68361 0 l 0 71.94708 c 0 16.39961 -5.99544 23.27717 -19.92623 23.27717 c -14.81291 0 -21.16156 -7.05324 -21.16156 -23.45285 l 0 -71.7714 l -30.68361 0 l 0 69.6558 c 0 14.28216 1.41101 22.04183 5.46653 29.44828 c 7.75967 14.28401 22.92395 21.16156 45.84974 21.16156 c 17.28173 0 29.2726 -3.52846 38.08822 -11.6395 c 5.29085 -5.11332 8.99315 -11.46198 11.1106 -18.86843 c 1.41102 -5.46654 1.93992 -10.57986 1.93992 -19.92623 l 0 -69.83148" stroke-linecap="round"/>
</g>
		<g transform="matrix(1 0 0 1 -0.4172 -66.9847)" id="112336">
<path style="stroke: none; stroke-width: 1; stroke-dasharray: none; stroke-linecap: butt; stroke-dashoffset: 0; stroke-linejoin: miter; stroke-miterlimit: 4; is-custom-font: none; font-file-url: none; fill: rgb(182,102,17); fill-rule: evenodd; opacity: 1;" transform=" translate(-302.44, -485.3775)" d="m 294.98931 496.40535 l 22.63915 -5.28345 l 4.52894 4.27743 l -2.5169 8.04817 l -24.65119 -7.04215 z m 19.62109 -61.88133 c 0 0 3.52107 33.20606 2.76656 36.47563 c 0 0 -0.75452 8.04816 11.31957 36.97679 c 12.07594 28.92678 4.27744 9.05603 14.33949 31.94484 c 0 0 2.76655 4.02593 4.52709 6.54098 l 4.52894 -36.22228 c 0.75451 -13.08011 0.50301 -34.46174 0.50301 -34.46174 c 0.75451 -0.50301 3.52107 -35.96891 3.01806 -38.73732 c -0.50301 -2.76655 -0.25151 -12.3256 -0.25151 -12.3256 c -36.97863 -1.50903 -45.28015 1.50904 -45.28015 1.50904 c -27.16624 -1.76239 -57.6039 -1.76239 -57.6039 -1.76239 c -1.76053 6.28948 -2.76655 15.59701 -2.5169 18.61507 c 0.25151 3.01991 0.75637 7.547 0.25151 15.34551 c -0.50116 7.79665 1.25937 30.4358 1.25937 30.4358 l -1.76053 -0.50301 c 1.25752 21.38163 -0.50486 54.08284 -0.50486 54.08284 l 24.65304 0 c 1.25752 -1.51088 25.65721 -60.87347 25.65721 -60.87347 c 8.80638 -18.11206 15.094 -47.04069 15.094 -47.04069" stroke-linecap="round"/>
</g>
		<g transform="matrix(1 0 0 1 126.7716 -68.5811)" id="777570">
<path style="stroke: none; stroke-width: 1; stroke-dasharray: none; stroke-linecap: butt; stroke-dashoffset: 0; stroke-linejoin: miter; stroke-miterlimit: 4; is-custom-font: none; font-file-url: none; fill: rgb(35,31,32); fill-rule: evenodd; opacity: 1;" transform=" translate(-429.6287, -483.7811)" d="m 408.6437 448.33645 l 21.16156 0 c 11.10876 0 16.04639 3.52662 16.04639 11.63766 c 0 7.23077 -5.46653 11.28629 -15.34181 11.1106 l -21.86614 0 l 0 -22.74826 z m 0 43.02771 l 23.45284 0 c 12.52163 0 18.16385 4.2312 18.16385 13.57757 c 0 9.17069 -5.46654 13.40189 -17.45741 13.40189 l -24.15928 0 l 0 -26.97946 z m -30.68361 -66.30487 l 0 117.44361 l 60.13374 0 c 14.28216 0 23.62853 -2.46882 31.03498 -8.63994 c 8.11104 -6.34865 12.16841 -15.34366 12.16841 -26.45241 c 0 -14.10648 -6.34866 -23.62853 -19.04596 -28.39048 l -1.93992 -0.70643 c 10.22849 -5.28901 15.34181 -13.22436 15.34181 -23.80607 c 0 -10.93307 -5.64222 -20.27944 -15.16613 -25.03954 c -5.99543 -2.99772 -13.93079 -4.40874 -26.09734 -4.40874 l -56.42959 0" stroke-linecap="round"/>
</g>
		<g transform="matrix(1 0 0 1 0 77.5583)" id="795855">
<path style="stroke: none; stroke-width: 1; stroke-dasharray: none; stroke-linecap: butt; stroke-dashoffset: 0; stroke-linejoin: miter; stroke-miterlimit: 4; is-custom-font: none; font-file-url: none; fill: rgb(35,31,32); fill-rule: evenodd; opacity: 1;" transform=" translate(-302.8571, -629.9205)" d="m 171.25991 679.58424 l 9.96959 0.24966 l 0 -1.74574 c -3.09019 -0.14795 -3.43971 -0.34767 -3.43971 -2.59087 l 0 -32.35354 l -9.67184 0.99678 l 0 1.59409 l 1.79567 0.29959 c 0.99677 0.1498 1.34629 0.49931 1.34629 2.44293 l 0 7.0292 c -1.1965 -0.44939 -2.74251 -0.69904 -4.43832 -0.69904 c -4.08696 0 -7.32694 1.19835 -9.47028 3.28991 c -2.29313 2.2432 -3.68935 5.48503 -3.68935 9.97143 c 0 7.32693 3.73928 12.36258 10.16931 12.36258 c 2.14334 0 4.73606 -1.0467 7.42864 -3.19004 l 0 2.34306 z m 0 -7.62652 c 0 0.74712 -0.0499 1.49424 -0.29959 2.24321 c -0.59917 1.74389 -2.04347 2.79059 -4.38654 2.79059 c -3.73929 0 -5.93256 -3.58949 -5.93256 -9.77171 c 0 -6.97741 2.59272 -10.3191 6.18037 -10.3191 c 2.04532 0 3.34168 1.04855 4.03887 2.39299 c 0.39945 0.7989 0.39945 1.74575 0.39945 2.89231 l 0 9.77171 z m 33.18942 0.34767 c -1.44431 2.89231 -3.48778 4.78599 -6.8794 4.78599 c -5.43325 0 -6.92749 -4.78599 -6.92749 -10.01951 l 13.40929 0 c 1.54601 0 2.44293 -0.39945 2.44293 -2.04348 c 0 -2.79245 -0.69904 -10.22109 -10.86835 -10.22109 c -4.08696 0 -7.07913 1.44615 -9.07267 3.78922 c -1.99355 2.34306 -2.89231 5.58304 -2.89231 9.07267 c 0 7.22892 3.29175 12.81196 12.01491 12.76203 c 5.78277 0 8.87295 -2.94039 10.4689 -7.17899 l -1.69581 -0.94684 z m -13.75881 -7.42679 c 0 -3.04026 0.84883 -7.97789 4.786 -7.97789 c 3.59134 0 4.0888 4.13874 4.0888 6.33201 c 0 1.29636 -0.34952 1.64588 -1.59594 1.64588 l -7.27886 0 z m 29.1413 14.9553 l 16.25166 0 c 4.88586 0 8.17577 -0.89876 10.26918 -2.49286 c 2.09341 -1.64403 3.0421 -4.03887 3.0421 -7.0292 c 0 -5.63297 -4.13874 -8.32555 -8.82487 -9.02274 c 4.78599 -1.09663 7.37871 -3.78922 7.37871 -7.77816 c 0 -2.94039 -1.14656 -4.98387 -3.2899 -6.33016 c -2.09341 -1.34629 -5.23538 -1.89369 -9.17254 -1.8456 l -15.65434 0 l 0 1.74574 c 3.83915 0.19972 4.13874 0.34951 4.13874 2.99032 l 0 25.0266 c 0 2.64265 -0.29959 2.79059 -4.13874 2.99032 l 0 1.74574 z m 11.01814 -17.29837 l 2.89046 0 c 5.43325 0 8.12583 3.38792 8.12583 7.97604 c -0.0499 5.63297 -3.28991 7.22892 -6.97927 7.22892 c -3.04025 0 -4.03702 -0.74897 -4.03702 -3.4397 l 0 -11.76526 z m 0 -2.09526 l 0 -10.91643 c 0 -1.8456 0.69719 -2.04347 3.28991 -2.09341 c 4.23675 0 6.82947 2.24321 6.77954 6.43003 c -0.0499 4.13873 -2.393 6.57981 -7.32879 6.57981 l -2.74066 0 z m 47.95424 17.00063 c -0.69903 0.0999 -1.69581 0.0499 -2.44478 -0.14979 c -0.74711 -0.19973 -1.64402 -0.89691 -1.64402 -3.93901 l 0 -11.46567 c 0 -3.09019 -0.64726 -7.07913 -8.97282 -7.07913 c -6.67967 0 -11.118 2.89231 -11.118 5.98249 c 0 1.9954 2.69259 2.84238 3.78922 2.84238 c 1.04671 0 1.59595 -0.69904 1.94362 -1.79383 c 1.29636 -4.03887 3.0421 -4.93763 4.68798 -4.93763 c 1.5941 0 3.33984 0.89876 3.33984 4.13874 l 0 2.59272 c -2.34492 1.34629 -5.98434 2.39299 -9.27425 3.4397 c -3.9871 1.29636 -5.23353 3.38977 -5.23353 6.18036 c 0 3.78922 2.59088 7.17899 7.47673 7.17899 c 3.0421 0 5.4351 -1.79382 7.12906 -2.94039 c 0.69719 1.64403 1.49608 2.94039 3.68936 2.94039 c 2.29313 0 5.08558 -0.74711 6.82947 -1.49608 l -0.19788 -1.49424 z m -10.41896 -4.43647 c -0.0518 3.14011 -2.24506 3.98709 -3.78922 3.98709 c -2.34307 0 -3.98895 -1.74389 -3.98895 -4.53633 c 0 -2.393 0.89691 -3.48964 2.89231 -4.43648 c 1.84375 -0.89691 3.73744 -1.54602 4.88586 -2.14334 l 0 7.12906 z m 11.71717 6.82947 l 14.35613 0 l 0 -1.74574 c -4.03702 -0.19973 -4.43647 -0.34767 -4.43647 -2.59087 l 0 -11.46752 c 0 -3.04026 0.89691 -4.23675 2.09341 -4.23675 c 0.79889 0 1.59594 0.39945 2.79244 1.09663 c 0.54739 0.29959 1.14657 0.59918 1.84375 0.59918 c 0.84883 0 1.59595 -0.44938 2.14335 -1.09664 c 0.49931 -0.69904 0.69903 -1.64588 0.69903 -2.54279 c 0 -1.69581 -0.99677 -3.0421 -3.09203 -3.0421 c -1.94362 0 -3.53772 1.24643 -6.57982 4.23675 l -0.59732 -4.23675 l -8.97281 1.39622 l 0 1.59595 l 1.79382 0.24965 c 0.99677 0.0999 1.34629 0.49747 1.34629 2.39115 l 0 15.05702 c 0 2.2432 -0.34952 2.44292 -3.38977 2.59087 l 0 1.74574 z m 41.87189 -7.57659 c -1.64403 3.38792 -3.58949 4.83407 -6.67968 4.83407 c -4.18682 0 -6.67967 -3.68935 -6.67967 -10.3191 c 0 -7.07913 2.34306 -9.87157 4.98571 -9.87157 c 1.94177 0 2.99032 1.59595 3.88723 4.48825 c 0.29959 0.99678 0.84698 1.54417 2.04348 1.54417 c 1.49609 0 3.78922 -0.79705 3.78922 -2.89046 c 0 -3.14196 -4.38654 -5.23537 -9.2724 -5.23537 c -4.0888 0 -7.17899 1.29636 -9.22246 3.53956 c -2.09341 2.29499 -3.19005 5.53311 -3.19005 9.47213 c 0 8.42541 4.48641 12.61223 11.66355 12.61223 c 3.94086 0 8.57521 -1.54416 10.3191 -7.42679 l -1.64403 -0.74712 z m 25.11722 0.0481 c -1.44431 2.89231 -3.48779 4.78599 -6.87941 4.78599 c -5.43324 0 -6.92933 -4.78599 -6.92933 -10.01951 l 13.41114 0 c 1.54416 0 2.44107 -0.39945 2.44107 -2.04348 c 0 -2.79245 -0.69718 -10.22109 -10.86649 -10.22109 c -4.08696 0 -7.07913 1.44615 -9.07268 3.78922 c -1.99354 2.34306 -2.8923 5.58304 -2.8923 9.07267 c 0 7.22892 3.2899 12.81196 12.01491 12.76203 c 5.78277 0 8.87295 -2.94039 10.4689 -7.17899 l -1.69581 -0.94684 z m -13.75881 -7.42679 c 0 -3.04026 0.84883 -7.97789 4.78599 -7.97789 c 3.5895 0 4.08881 4.13874 4.08881 6.33201 c 0 1.29636 -0.34952 1.64588 -1.59595 1.64588 l -7.27885 0 z m 27.66001 -21.73485 l -9.67185 0.99678 l 0 1.59409 l 1.79567 0.29959 c 0.99493 0.1498 1.34629 0.49931 1.34629 2.44293 l 0 27.02015 c 0 2.2432 -0.35136 2.44292 -3.44155 2.59087 l 0 1.74574 l 13.41114 0 l 0 -1.74574 c -3.09018 -0.14795 -3.4397 -0.34767 -3.4397 -2.59087 l 0 -32.35354 z m 18.43754 37.28747 c 8.725 0 12.5623 -4.78599 12.5623 -12.81011 c 0 -8.02782 -3.8373 -12.81381 -12.5623 -12.81381 c -8.67508 0 -12.51238 4.78599 -12.51238 12.81381 c 0 8.02412 3.8373 12.81011 12.51238 12.81011 z m 0 -2.09341 c -3.83731 0 -5.53312 -3.98709 -5.53312 -10.7167 c 0 -6.73146 1.69581 -10.7204 5.53312 -10.7204 c 3.88908 0 5.58304 3.98894 5.58304 10.7204 c 0 6.72961 -1.69396 10.7167 -5.58304 10.7167 z m 15.89289 1.49609 l 12.96176 0 l 0 -1.74574 l -1.24643 -0.098 c -1.39622 -0.10172 -1.79382 -0.44939 -1.79382 -2.29314 l 0 -11.71533 c 0 -1.19649 0.0999 -2.14334 0.49746 -2.8923 c 0.7989 -1.54602 2.44293 -2.84238 4.73606 -2.84238 c 2.79245 0 4.38655 1.64588 4.38655 5.13551 l 0 12.3145 c 0 1.84375 -0.39945 2.19142 -1.7439 2.29314 l -1.29821 0.098 l 0 1.74574 l 13.01169 0 l 0 -1.74574 c -3.09018 -0.14795 -3.4397 -0.34767 -3.4397 -2.59087 l 0 -12.91183 c 0 -4.83592 -2.49101 -7.77816 -7.47673 -7.77816 c -3.14011 0 -5.48318 1.59595 -8.67322 3.59134 l -0.69904 -3.59134 l -8.97281 1.39622 l 0 1.59595 l 1.84375 0.24965 c 0.94685 0.14795 1.29636 0.49747 1.29636 2.39115 l 0 15.05702 c 0 2.2432 -0.29958 2.44292 -3.38977 2.59087 l 0 1.74574 z m 57.17671 -2.393 c -0.69718 0.0999 -1.69581 0.0499 -2.44292 -0.14979 c -0.74712 -0.19973 -1.64403 -0.89691 -1.64403 -3.93901 l 0 -11.46567 c 0 -3.09019 -0.64911 -7.07913 -8.97466 -7.07913 c -6.67968 0 -11.11616 2.89231 -11.11616 5.98249 c 0 1.9954 2.69259 2.84238 3.78922 2.84238 c 1.04671 0 1.5941 -0.69904 1.94362 -1.79383 c 1.29636 -4.03887 3.04025 -4.93763 4.68613 -4.93763 c 1.59595 0 3.33984 0.89876 3.33984 4.13874 l 0 2.59272 c -2.34307 1.34629 -5.98249 2.39299 -9.2724 3.4397 c -3.9871 1.29636 -5.23352 3.38977 -5.23352 6.18036 c 0 3.78922 2.59087 7.17899 7.47672 7.17899 c 3.0421 0 5.43325 -1.79382 7.12906 -2.94039 c 0.69719 1.64403 1.49609 2.94039 3.68936 2.94039 c 2.29313 0 5.08558 -0.74711 6.82947 -1.49608 l -0.19973 -1.49424 z m -10.41896 -4.43647 c -0.0499 3.14011 -2.2432 3.98709 -3.78922 3.98709 c -2.34122 0 -3.9871 -1.74389 -3.9871 -4.53633 c 0 -2.393 0.89692 -3.48964 2.89046 -4.43648 c 1.84561 -0.89691 3.73929 -1.54602 4.88586 -2.14334 l 0 7.12906 z M 79.192424 586.24074 c 0 -2.64265 0.297737 -2.79245 4.136887 -2.99217 l 0 -1.74389 l -15.155027 0 l 0 1.74389 c 3.83915 0.19972 4.138737 0.34952 4.138737 2.99217 l 0 17.99555 c 0 5.08558 -1.29636 10.41897 -7.278851 10.41897 c -5.882629 0 -7.278852 -5.38332 -7.278852 -10.41897 l 0 -17.99555 c 0 -2.64265 0.299587 -2.79245 4.138737 -2.99217 l 0 -1.74389 l -15.155027 0 l 0 1.74389 c 3.83915 0.19972 4.136888 0.34952 4.136888 2.99217 l 0 17.89569 c 0 2.94224 0.499311 5.63298 1.496085 7.37872 c 2.193272 3.88908 6.729609 5.23352 12.662169 5.23352 c 5.632973 0 10.269172 -1.34444 12.562306 -5.28345 c 0.996774 -1.74575 1.546016 -4.43648 1.595948 -7.32879 l 0 -17.89569 z m 6.823923 29.76081 l 12.961755 0 l 0 -1.74574 l -1.246429 -0.098 c -1.396223 -0.0999 -1.793823 -0.44938 -1.793823 -2.29314 l 0 -11.71532 c 0 -1.1965 0.09801 -2.14334 0.497463 -2.89231 c 0.798898 -1.54602 2.442927 -2.84053 4.736057 -2.84053 c 2.7906 0 4.38655 1.64588 4.38655 5.13366 l 0 12.3145 c 0 1.84376 -0.39945 2.19328 -1.74574 2.29314 l -1.29636 0.098 l 0 1.74574 l 13.01168 0 l 0 -1.74574 c -3.09018 -0.14794 -3.4397 -0.34767 -3.4397 -2.59087 l 0 -12.91182 c 0 -4.83593 -2.49101 -7.77632 -7.47673 -7.77632 c -3.14011 0 -5.483174 1.5941 -8.67322 3.5895 l -0.699036 -3.5895 l -8.972811 1.39437 l 0 1.59595 l 1.843753 0.24966 c 0.946843 0.14794 1.296361 0.49746 1.296361 2.39299 l 0 15.05517 c 0 2.2432 -0.299587 2.44293 -3.38977 2.59087 l 0 1.74574 z m 41.374423 -24.72701 l -9.62191 1.09663 l 0 1.59595 l 1.79567 0.24966 c 0.94684 0.14794 1.29451 0.49746 1.29451 2.39299 l 0 15.05517 c 0 2.2432 -0.34767 2.44293 -3.4397 2.59087 l 0 1.74574 l 13.41113 0 l 0 -1.74574 c -3.09203 -0.14794 -3.4397 -0.34767 -3.4397 -2.59087 l 0 -20.3904 z m -3.44155 -3.28991 c 2.393 0 3.98895 -1.74389 4.03888 -3.88723 c 0 -2.14519 -1.54602 -3.88908 -4.03888 -3.88908 c -2.44108 0 -3.98709 1.74389 -3.98709 3.88908 c 0 2.14334 1.54601 3.88723 3.98709 3.88723 z m 18.03994 28.01692 l 4.786 0 l 4.33661 -11.85587 c 1.39437 -3.78367 2.84053 -6.92009 3.63942 -8.66398 c 0.79705 -1.74204 1.3463 -2.03978 3.48964 -2.14149 l 0 -1.76423 l -10.02137 0 l 0 1.76423 l 2.2432 0.24965 c 0.89876 0.0999 1.04856 0.64726 0.7989 1.54417 c -0.49931 1.89184 -1.24643 4.28114 -2.14334 6.82023 l -2.84238 8.21459 l -2.79244 -7.56734 c -0.34952 -0.99677 -2.29129 -6.6205 -2.64081 -7.56734 c -0.29958 -0.94499 -0.19972 -1.34444 0.74712 -1.44431 l 1.99355 -0.24965 l 0 -1.76423 l -12.51238 0 l 0 1.76423 c 2.09341 0.15164 2.69259 0.49931 3.38977 2.19327 c 1.29636 3.23443 2.44293 6.42078 3.63943 9.75692 l 3.88908 10.71115 z m 38.08822 -7.52851 c -1.4443 2.89231 -3.48963 4.78785 -6.8794 4.78785 c -5.43325 0 -6.92933 -4.78785 -6.92933 -10.02137 l 13.41113 0 c 1.54417 0 2.44293 -0.39945 2.44293 -2.04348 c 0 -2.79244 -0.69719 -10.21924 -10.86835 -10.21924 c -4.08695 0 -7.07912 1.44431 -9.07267 3.78737 c -1.99355 2.34307 -2.89231 5.58304 -2.89231 9.07268 c 0 7.22892 3.28991 12.81381 12.01491 12.76203 c 5.78277 0 8.87295 -2.94039 10.4689 -7.17714 l -1.69581 -0.9487 z m -13.7588 -7.42679 c 0 -3.04025 0.84883 -7.97604 4.78599 -7.97604 c 3.58949 0 4.08881 4.13689 4.08881 6.33201 c 0 1.29451 -0.34952 1.64403 -1.59595 1.64403 l -7.27885 0 z m 18.13795 14.9553 l 14.35798 0 l 0 -1.74574 c -4.03703 -0.19787 -4.43648 -0.34767 -4.43648 -2.59087 l 0 -11.46567 c 0 -3.0421 0.89691 -4.23675 2.09341 -4.23675 c 0.79705 0 1.5941 0.3976 2.7906 1.09479 c 0.54924 0.29958 1.14841 0.59917 1.8456 0.59917 c 0.84698 0 1.59595 -0.44938 2.14334 -1.09664 c 0.49746 -0.69903 0.69904 -1.64588 0.69904 -2.54279 c 0 -1.69581 -0.99863 -3.04025 -3.09204 -3.04025 c -1.94361 0 -3.53956 1.24458 -6.57981 4.23675 l -0.59917 -4.23675 l -8.97282 1.39437 l 0 1.59595 l 1.79568 0.24966 c 0.99677 0.0999 1.34444 0.49746 1.34444 2.39299 l 0 15.05517 c 0 2.2432 -0.34767 2.44293 -3.38977 2.59087 l 0 1.74574 z m 38.63376 -16.94885 l 0 -6.38194 c -1.89553 -1.1965 -4.6362 -1.69396 -7.12906 -1.69396 c -5.8327 0 -9.57198 2.74067 -9.57198 7.67645 c 0 3.93902 3.33983 6.08236 7.57843 7.52666 c 2.29129 0.7989 4.93394 2.19512 4.93394 4.88586 c 0 2.14334 -1.49423 3.4397 -3.83915 3.4397 c -3.58764 0 -6.0805 -3.23998 -7.277 -7.4268 l -1.69581 0 l 0.54924 7.17714 c 1.79382 1.64588 5.38332 2.34307 8.2257 2.34307 c 6.08235 0 9.86972 -2.99032 9.86972 -7.82625 c 0 -4.33661 -2.69258 -6.38009 -7.47673 -8.0759 c -2.59272 -0.89691 -5.13551 -1.99355 -5.13551 -4.33661 c 0.0499 -1.89554 1.44615 -3.28991 3.68936 -3.28991 c 2.74251 0 4.83407 2.44293 5.58304 5.98249 l 1.69581 0 z m 14.45044 -7.77816 l -9.62191 1.09663 l 0 1.59595 l 1.79382 0.24966 c 0.94869 0.14794 1.29636 0.49746 1.29636 2.39299 l 0 15.05517 c 0 2.2432 -0.34767 2.44293 -3.4397 2.59087 l 0 1.74574 l 13.41113 0 l 0 -1.74574 c -3.09203 -0.14794 -3.4397 -0.34767 -3.4397 -2.59087 l 0 -20.3904 z m -3.4397 -3.28991 c 2.39115 0 3.9871 -1.74389 4.03703 -3.88723 c 0 -2.14519 -1.54602 -3.88908 -4.03703 -3.88908 c -2.44478 0 -3.98894 1.74389 -3.98894 3.88908 c 0 2.14334 1.54416 3.88723 3.98894 3.88723 z m 24.12044 3.5895 l -5.58304 0 l 0 -6.28208 l -2.39484 0 l -3.93717 6.28208 l -3.33984 0 l 0 2.29313 l 3.14012 0 l 0 16.55125 c 0 4.73606 3.53956 6.18037 5.93256 6.18037 c 2.2432 0 5.08558 -1.09479 7.37686 -2.54094 l -0.49746 -1.3463 c -0.89876 0.34767 -1.94546 0.54925 -3.09018 0.54925 c -1.79567 0 -3.19005 -1.34629 -3.19005 -4.73791 l 0 -14.65572 l 5.58304 0 l 0 -2.29313 z m 28.21295 22.03443 c -0.69719 0.0999 -1.69396 0.0499 -2.44293 -0.1498 c -0.74711 -0.19787 -1.64403 -0.89691 -1.64403 -3.93716 l 0 -11.46752 c 0 -3.09018 -0.64725 -7.07728 -8.97466 -7.07728 c -6.67968 0 -11.11615 2.89046 -11.11615 5.98064 c 0 1.9954 2.69258 2.84238 3.78922 2.84238 c 1.0467 0 1.59595 -0.69904 1.94362 -1.79382 c 1.29636 -4.03888 3.0421 -4.93579 4.68613 -4.93579 c 1.59594 0 3.34168 0.89691 3.34168 4.13689 l 0 2.59272 c -2.34491 1.34629 -5.98434 2.393 -9.27424 3.4397 c -3.9871 1.29636 -5.23353 3.38977 -5.23353 6.18222 c 0 3.78737 2.59087 7.17714 7.47673 7.17714 c 3.0421 0 5.43325 -1.79383 7.12906 -2.94039 c 0.69903 1.64588 1.49608 2.94039 3.68935 2.94039 c 2.29314 0 5.08558 -0.74712 6.82948 -1.49424 l -0.19973 -1.49608 z m -10.41712 -4.43648 c -0.0518 3.14012 -2.24505 3.9871 -3.78922 3.9871 c -2.34306 0 -3.98894 -1.7439 -3.98894 -4.53634 c 0 -2.393 0.89691 -3.48963 2.89046 -4.43648 c 1.8456 -0.89691 3.73929 -1.54601 4.8877 -2.14334 l 0 7.12906 z m 27.022 -17.59795 l -5.58489 0 l 0 -6.28208 l -2.393 0 l -3.93901 6.28208 l -3.33799 0 l 0 2.29313 l 3.14012 0 l 0 16.55125 c 0 4.73606 3.53956 6.18037 5.93255 6.18037 c 2.24321 0 5.08374 -1.09479 7.37687 -2.54094 l -0.49746 -1.3463 c -0.89691 0.34767 -1.94547 0.54925 -3.09204 0.54925 c -1.79382 0 -3.19004 -1.34629 -3.19004 -4.73791 l 0 -14.65572 l 5.58489 0 l 0 -2.29313 z m 10.30246 24.42742 l 11.41574 0 l 0 -1.74574 l -2.84238 -0.19787 c -1.24458 -0.0999 -1.29636 -0.64911 -0.99677 -1.89369 c 0.64725 -2.79244 1.64588 -5.63482 2.59272 -8.82487 l 10.21924 0 l 2.89231 8.72501 c 0.3976 1.24458 0.19972 1.89368 -1.04671 1.99355 l -2.64265 0.19787 l 0 1.74574 l 14.65572 0 l 0 -1.74574 c -2.69258 -0.098 -3.28991 -0.29774 -4.03703 -2.59087 l -10.12123 -30.16026 l -5.33338 0 l -5.58304 16.05194 c -1.69581 4.83592 -3.48964 10.21924 -4.88586 13.80873 c -0.89691 2.34307 -1.39622 2.79245 -4.28668 2.89046 l 0 1.74574 z m 10.91643 -14.85544 c 0.59917 -1.79567 3.78922 -11.81519 4.33846 -13.41113 l 4.43647 13.41113 l -8.77493 0 z m 43.26811 14.85544 l 9.47027 0 l 0 -1.74574 c -3.0384 -0.14794 -3.38792 -0.34767 -3.38792 -2.59087 l 0 -20.3904 l -9.67184 1.09663 l 0 1.59595 l 1.79382 0.24966 c 0.99862 0.14794 1.34814 0.49746 1.34814 2.39299 l 0 10.76664 c 0 1.04855 -0.0999 2.2432 -0.4013 2.89231 c -0.69719 1.54601 -2.44108 2.89046 -4.73421 2.89046 c -2.59272 0 -4.43648 -1.69396 -4.43648 -5.58305 l 0 -16.30159 l -9.67184 1.09663 l 0 1.59595 l 1.79382 0.24966 c 0.99862 0.14794 1.34629 0.49746 1.34629 2.39299 l 0 12.51238 c 0 5.78277 3.53956 7.47673 7.17899 7.47673 c 4.2386 0 7.12906 -2.49101 8.92473 -3.4397 l 0.44753 2.84237 z m 26.76309 -24.42742 l -5.58489 0 l 0 -6.28208 l -2.39299 0 l -3.93717 6.28208 l -3.33984 0 l 0 2.29313 l 3.14012 0 l 0 16.55125 c 0 4.73606 3.53956 6.18037 5.93256 6.18037 c 2.2432 0 5.08373 -1.09479 7.37686 -2.54094 l -0.49746 -1.3463 c -0.89691 0.34767 -1.94362 0.54925 -3.09203 0.54925 c -1.79382 0 -3.19005 -1.34629 -3.19005 -4.73791 l 0 -14.65572 l 5.58489 0 l 0 -2.29313 z m 15.55078 25.02475 c 8.72501 0 12.56416 -4.78415 12.56416 -12.81012 c 0 -8.02782 -3.83915 -12.81196 -12.56416 -12.81196 c -8.67507 0 -12.51237 4.78414 -12.51237 12.81196 c 0 8.02597 3.8373 12.81012 12.51237 12.81012 z m 0 -2.09341 c -3.83915 0 -5.53311 -3.9871 -5.53311 -10.71671 c 0 -6.73145 1.69396 -10.71855 5.53311 -10.71855 c 3.88908 0 5.58304 3.9871 5.58304 10.71855 c 0 6.72961 -1.69396 10.71671 -5.58304 10.71671 z m 2.69259 -24.52729 l 0.94684 -1.34444 l -6.72961 -6.87941 c -1.74574 -1.79567 -2.59272 -2.34491 -3.53956 -2.34491 c -1.04671 0 -2.393 1.54602 -2.393 2.69258 c 0 1.1965 1.49608 2.14334 3.19004 3.09204 l 8.52529 4.78414 z m 13.20031 26.02337 l 12.96176 0 l 0 -1.74574 l -1.24643 -0.098 c -1.39623 -0.0999 -1.79383 -0.44938 -1.79383 -2.29314 l 0 -11.71532 c 0 -1.1965 0.098 -2.14334 0.49747 -2.89231 c 0.79705 -1.54602 2.44292 -2.84053 4.73606 -2.84053 c 2.79059 0 4.38654 1.64588 4.38654 5.13366 l 0 12.3145 c 0 1.84376 -0.3976 2.19328 -1.74389 2.29314 l -1.29636 0.098 l 0 1.74574 l 13.00984 0 l 0 -1.74574 c -3.09019 -0.14794 -3.4397 -0.34767 -3.4397 -2.59087 l 0 -12.91182 c 0 -4.83593 -2.49101 -7.77632 -7.47673 -7.77632 c -3.14196 0 -5.48318 1.5941 -8.67323 3.5895 l -0.69903 -3.5895 l -8.97281 1.39437 l 0 1.59595 l 1.84375 0.24966 c 0.94684 0.14794 1.29636 0.49746 1.29636 2.39299 l 0 15.05517 c 0 2.2432 -0.29959 2.44293 -3.38977 2.59087 l 0 1.74574 z m 44.51454 0.59733 c 8.72316 0 12.56231 -4.78415 12.56231 -12.81012 c 0 -8.02782 -3.83915 -12.81196 -12.56231 -12.81196 c -8.67507 0 -12.51237 4.78414 -12.51237 12.81196 c 0 8.02597 3.8373 12.81012 12.51237 12.81012 z m 0 -2.09341 c -3.83915 0 -5.53311 -3.9871 -5.53311 -10.71671 c 0 -6.73145 1.69396 -10.71855 5.53311 -10.71855 c 3.88723 0 5.58304 3.9871 5.58304 10.71855 c 0 6.72961 -1.69581 10.71671 -5.58304 10.71671 z m 44.65694 -0.24966 l -1.24643 -0.098 c -1.39622 -0.0999 -1.79382 -0.49931 -1.79382 -2.29314 l 0 -11.41574 c 0 -0.94869 0.0481 -1.8456 0.2478 -2.49285 c 0.69904 -2.29499 2.54279 -3.53957 4.68613 -3.53957 c 2.64266 0 4.33847 1.69396 4.33847 5.28346 l 0 12.1647 c 0 1.84376 -0.39945 2.19328 -1.74574 2.29314 l -1.29636 0.098 l 0 1.74574 l 13.01168 0 l 0 -1.74574 c -3.09203 -0.14794 -3.4397 -0.34767 -3.4397 -2.59087 l 0 -12.91182 c 0 -4.83593 -2.54279 -7.77632 -7.67645 -7.77632 c -3.69121 0 -6.72961 2.44108 -8.72501 3.78737 c -1.14656 -1.99355 -3.09018 -3.78737 -6.77954 -3.78737 c -3.4397 0 -6.03242 2.09341 -8.42541 3.5895 l -0.69719 -3.5895 l -8.97466 1.39437 l 0 1.59595 l 1.8456 0.24966 c 0.94684 0.14794 1.29636 0.49746 1.29636 2.39299 l 0 15.05517 c 0 2.2432 -0.29959 2.44293 -3.38977 2.59087 l 0 1.74574 l 12.95991 0 l 0 -1.74574 l -1.24458 -0.098 c -1.39623 -0.0999 -1.79567 -0.44938 -1.79567 -2.29314 l 0 -11.41574 c 0 -0.94869 0.0499 -1.74574 0.29958 -2.44292 c 0.69719 -2.24506 2.64081 -3.5895 4.93579 -3.5895 c 3.09018 0 4.03702 2.34307 4.03702 5.28346 l 0 12.1647 c 0 1.84376 -0.39944 2.19328 -1.79567 2.29314 l -1.24458 0.098 l 0 1.74574 l 12.61224 0 l 0 -1.74574 z m 43.87098 -0.64725 c -0.69718 0.0999 -1.69581 0.0499 -2.44292 -0.1498 c -0.74897 -0.19787 -1.64403 -0.89691 -1.64403 -3.93716 l 0 -11.46752 c 0 -3.09018 -0.64911 -7.07728 -8.97466 -7.07728 c -6.67968 0 -11.11616 2.89046 -11.11616 5.98064 c 0 1.9954 2.69074 2.84238 3.78737 2.84238 c 1.04856 0 1.59595 -0.69904 1.94547 -1.79382 c 1.29636 -4.03888 3.04025 -4.93579 4.68613 -4.93579 c 1.59595 0 3.33984 0.89691 3.33984 4.13689 l 0 2.59272 c -2.34307 1.34629 -5.98249 2.393 -9.2724 3.4397 c -3.98894 1.29636 -5.23537 3.38977 -5.23537 6.18222 c 0 3.78737 2.59272 7.17714 7.47857 7.17714 c 3.0421 0 5.43325 -1.79383 7.12906 -2.94039 c 0.69719 1.64588 1.49609 2.94039 3.68751 2.94039 c 2.29498 0 5.08558 -0.74712 6.83132 -1.49424 l -0.19973 -1.49608 z m -10.41896 -4.43648 c -0.0499 3.14012 -2.2432 3.9871 -3.78922 3.9871 c -2.34307 0 -3.98894 -1.7439 -3.98894 -4.53634 c 0 -2.393 0.89876 -3.48963 2.8923 -4.43648 c 1.84376 -0.89691 3.73929 -1.54601 4.88586 -2.14334 l 0 7.12906" stroke-linecap="round"/>
</g>
</g>
</g>
<g transform="matrix(8.103 0 0 8.103 499.9998 571.9509)" id="987971">
<g style="" vector-effect="non-scaling-stroke">
		<g transform="matrix(0.1333 0 0 -0.1333 -2.2175 -10.3428)" id="344284">
<path style="stroke: none; stroke-width: 1; stroke-dasharray: none; stroke-linecap: butt; stroke-dashoffset: 0; stroke-linejoin: miter; stroke-miterlimit: 4; is-custom-font: none; font-file-url: none; fill: rgb(32,49,94); fill-rule: evenodd; opacity: 1;" transform=" translate(-408.57, -186.3635)" d="m 401.855 157.852 h 13.43 v 57.023 h -13.43 v -57.023" stroke-linecap="round"/>
</g>
		<g transform="matrix(0.1333 0 0 -0.1333 2.7502 -9.3453)" id="711874">
<path style="stroke: none; stroke-width: 1; stroke-dasharray: none; stroke-linecap: butt; stroke-dashoffset: 0; stroke-linejoin: miter; stroke-miterlimit: 4; is-custom-font: none; font-file-url: none; fill: rgb(32,49,94); fill-rule: evenodd; opacity: 1;" transform=" translate(-445.832, -178.8845)" d="m 449.074 199.941 c 2.528 0 4.84 -0.402 6.946 -1.23 c 2.093 -0.816 3.894 -1.977 5.406 -3.523 c 1.515 -1.54 2.687 -3.387 3.523 -5.563 c 0.836 -2.187 1.246 -4.629 1.246 -7.336 v -24.461 h -12.484 v 22.188 c 0 2.722 -0.742 4.839 -2.191 6.355 c -1.442 1.488 -3.34 2.258 -5.688 2.258 c -2.348 0 -4.246 -0.77 -5.687 -2.258 c -1.454 -1.516 -2.176 -3.633 -2.176 -6.355 v -22.188 h -12.5 v 41.664 h 9.246 l 1.859 -4.082 c 0.992 0.84 2.129 1.61 3.426 2.274 c 1.113 0.531 2.434 1.043 3.98 1.523 c 1.54 0.488 3.243 0.734 5.094 0.734" stroke-linecap="round"/>
</g>
		<g transform="matrix(0.1333 0 0 -0.1333 8.7675 -9.3155)" id="437634">
<path style="stroke: none; stroke-width: 1; stroke-dasharray: none; stroke-linecap: butt; stroke-dashoffset: 0; stroke-linejoin: miter; stroke-miterlimit: 4; is-custom-font: none; font-file-url: none; fill: rgb(32,49,94); fill-rule: evenodd; opacity: 1;" transform=" translate(-490.961, -178.6605)" d="m 485.172 171.414 c 0.254 -1.375 0.836 -2.488 1.769 -3.293 c 0.93 -0.828 2.188 -1.23 3.797 -1.23 c 1.598 0 2.844 0.367 3.75 1.136 c 0.895 0.746 1.332 1.586 1.332 2.489 c 0 0.718 -0.535 1.308 -1.621 1.761 c -1.078 0.45 -2.422 0.899 -4.015 1.348 c -1.61 0.473 -3.356 0.992 -5.243 1.586 c -1.886 0.617 -3.617 1.406 -5.226 2.398 c -1.61 0.996 -2.942 2.325 -4.031 3.946 c -1.075 1.629 -1.621 3.679 -1.621 6.164 c 0 1.691 0.378 3.301 1.113 4.84 c 0.742 1.535 1.804 2.875 3.195 4.035 c 1.395 1.148 3.086 2.07 5.082 2.742 c 2.008 0.711 4.285 1.055 6.813 1.055 c 5.554 0 9.777 -1.207 12.691 -3.61 c 2.895 -2.437 4.684 -5.429 5.363 -9.062 l -12.031 -0.903 c -0.266 0.903 -0.797 1.719 -1.668 2.489 c -0.871 0.742 -2.008 1.125 -3.422 1.125 c -1.429 0 -2.469 -0.297 -3.16 -0.914 c -0.664 -0.602 -1.016 -1.348 -1.016 -2.25 c 0 -0.789 0.543 -1.379 1.622 -1.809 c 1.089 -0.437 2.418 -0.875 4.031 -1.324 c 1.609 -0.449 3.336 -0.981 5.238 -1.586 c 1.875 -0.594 3.629 -1.395 5.215 -2.402 c 1.609 -0.993 2.965 -2.309 4.027 -3.93 c 1.09 -1.617 1.621 -3.68 1.621 -6.152 c 0 -1.692 -0.375 -3.336 -1.172 -4.887 c -0.75 -1.574 -1.875 -2.969 -3.363 -4.223 c -1.476 -1.219 -3.281 -2.203 -5.41 -2.937 c -2.129 -0.723 -4.523 -1.086 -7.176 -1.086 c -5.793 0 -10.176 1.242 -13.101 3.726 c -2.93 2.461 -4.735 5.75 -5.41 9.86 l 12.027 0.898" stroke-linecap="round"/>
</g>
		<g transform="matrix(0.1333 0 0 -0.1333 13.613 -9.9487)" id="77118">
<path style="stroke: none; stroke-width: 1; stroke-dasharray: none; stroke-linecap: butt; stroke-dashoffset: 0; stroke-linejoin: miter; stroke-miterlimit: 4; is-custom-font: none; font-file-url: none; fill: rgb(32,49,94); fill-rule: evenodd; opacity: 1;" transform=" translate(-527.3005, -183.408)" d="m 519.898 188.168 h -6.488 v 10.414 h 3.223 c 3.422 0 5.105 1.668 5.105 4.981 v 5.878 h 10.645 v -9.949 h 8.808 v -11.324 h -8.808 v -13.57 c 0 -1.825 0.535 -3.254 1.574 -4.309 c 1.055 -1.055 2.383 -1.586 3.981 -1.586 c 0.496 0 0.933 0.012 1.308 0.047 c 0.363 0.023 0.703 0.07 1.016 0.133 c 0.301 0.055 0.605 0.152 0.929 0.269 v -10.863 c -0.496 -0.187 -1.05 -0.332 -1.668 -0.449 c -1.234 -0.309 -2.699 -0.465 -4.355 -0.465 c -4.875 0 -8.637 1.328 -11.301 3.941 c -2.648 2.629 -3.969 6.45 -3.969 11.457 v 15.395" stroke-linecap="round"/>
</g>
		<g transform="matrix(0.1333 0 0 -0.1333 17.5617 -10.5236)" id="769972">
<path style="stroke: none; stroke-width: 1; stroke-dasharray: none; stroke-linecap: butt; stroke-dashoffset: 0; stroke-linejoin: miter; stroke-miterlimit: 4; is-custom-font: none; font-file-url: none; fill: rgb(32,49,94); fill-rule: evenodd; opacity: 1;" transform=" translate(-556.914, -187.719)" d="m 549.98 210.805 c 0 1.812 0.704 3.394 2.083 4.746 c 1.39 1.359 3.011 2.047 4.863 2.047 c 1.851 0 3.461 -0.688 4.863 -2.047 c 1.383 -1.352 2.059 -2.934 2.059 -4.746 c 0 -1.809 -0.676 -3.395 -2.059 -4.758 c -1.402 -1.359 -3.012 -2.035 -4.863 -2.035 c -1.852 0 -3.473 0.676 -4.863 2.035 c -1.379 1.363 -2.083 2.949 -2.083 4.758 z m 0.461 -52.965 h 12.5 v 41.652 h -12.5 V 157.84" stroke-linecap="round"/>
</g>
		<g transform="matrix(0.1333 0 0 -0.1333 21.2044 -9.9487)" id="951408">
<path style="stroke: none; stroke-width: 1; stroke-dasharray: none; stroke-linecap: butt; stroke-dashoffset: 0; stroke-linejoin: miter; stroke-miterlimit: 4; is-custom-font: none; font-file-url: none; fill: rgb(32,49,94); fill-rule: evenodd; opacity: 1;" transform=" translate(-584.2365, -183.408)" d="m 576.828 188.168 h -6.476 v 10.414 h 3.234 c 3.398 0 5.094 1.668 5.094 4.981 v 5.878 h 10.644 v -9.949 h 8.797 v -11.324 h -8.797 v -13.57 c 0 -1.825 0.52 -3.254 1.574 -4.309 c 1.055 -1.055 2.372 -1.586 3.981 -1.586 c 0.496 0 0.922 0.012 1.305 0.047 c 0.367 0.023 0.703 0.07 1.019 0.133 c 0.305 0.055 0.606 0.152 0.918 0.269 v -10.863 c -0.496 -0.187 -1.051 -0.332 -1.668 -0.449 c -1.223 -0.309 -2.687 -0.465 -4.344 -0.465 c -4.89 0 -8.64 1.328 -11.3 3.941 c -2.664 2.629 -3.981 6.45 -3.981 11.457 v 15.395" stroke-linecap="round"/>
</g>
		<g transform="matrix(0.1333 0 0 -0.1333 26.8203 -9.2852)" id="183061">
<path style="stroke: none; stroke-width: 1; stroke-dasharray: none; stroke-linecap: butt; stroke-dashoffset: 0; stroke-linejoin: miter; stroke-miterlimit: 4; is-custom-font: none; font-file-url: none; fill: rgb(32,49,94); fill-rule: evenodd; opacity: 1;" transform=" translate(-626.3575, -178.4335)" d="m 623.121 157.383 c -2.543 0 -4.84 0.414 -6.945 1.23 c -2.106 0.805 -3.899 1.989 -5.406 3.528 c -1.516 1.539 -2.7 3.394 -3.524 5.574 c -0.848 2.16 -1.258 4.613 -1.258 7.324 v 24.445 h 12.5 v -22.171 c 0 -2.723 0.723 -4.844 2.176 -6.344 c 1.453 -1.516 3.34 -2.262 5.699 -2.262 c 2.336 0 4.235 0.746 5.688 2.262 c 1.437 1.5 2.176 3.621 2.176 6.344 v 22.171 h 12.5 v -41.64 h -9.254 l -1.868 4.07 c -1.039 -0.851 -2.214 -1.598 -3.507 -2.273 c -1.114 -0.602 -2.418 -1.121 -3.934 -1.575 c -1.512 -0.457 -3.203 -0.683 -5.043 -0.683" stroke-linecap="round"/>
</g>
		<g transform="matrix(0.1333 0 0 -0.1333 32.2523 -9.9487)" id="447374">
<path style="stroke: none; stroke-width: 1; stroke-dasharray: none; stroke-linecap: butt; stroke-dashoffset: 0; stroke-linejoin: miter; stroke-miterlimit: 4; is-custom-font: none; font-file-url: none; fill: rgb(32,49,94); fill-rule: evenodd; opacity: 1;" transform=" translate(-667.0955, -183.408)" d="m 659.691 188.168 h -6.484 v 10.414 h 3.231 c 3.398 0 5.093 1.668 5.093 4.981 v 5.878 h 10.649 v -9.949 h 8.804 v -11.324 h -8.804 v -13.57 c 0 -1.825 0.527 -3.254 1.57 -4.309 c 1.055 -1.055 2.371 -1.586 3.98 -1.586 c 0.5 0 0.934 0.012 1.305 0.047 c 0.367 0.023 0.703 0.07 1.02 0.133 c 0.304 0.055 0.605 0.152 0.929 0.269 v -10.863 c -0.496 -0.187 -1.05 -0.332 -1.668 -0.449 c -1.234 -0.309 -2.699 -0.465 -4.355 -0.465 c -4.875 0 -8.641 1.328 -11.301 3.941 c -2.652 2.629 -3.969 6.45 -3.969 11.457 v 15.395" stroke-linecap="round"/>
</g>
		<g transform="matrix(0.1333 0 0 -0.1333 -0.6149 0.1505)" id="799409">
<path style="stroke: none; stroke-width: 1; stroke-dasharray: none; stroke-linecap: butt; stroke-dashoffset: 0; stroke-linejoin: miter; stroke-miterlimit: 4; is-custom-font: none; font-file-url: none; fill: rgb(32,49,94); fill-rule: evenodd; opacity: 1;" transform=" translate(-420.594, -107.6639)" d="m 418.98 78.9219 c -2.652 0 -5.179 0.5312 -7.585 1.5859 c -2.411 1.0508 -4.528 2.5313 -6.34 4.4336 c -1.828 1.9063 -3.282 4.1445 -4.36 6.7344 c -1.074 2.6015 -1.632 5.4336 -1.632 8.5192 c 0 3.09 0.558 5.918 1.632 8.52 c 1.078 2.582 2.532 4.84 4.36 6.734 c 1.812 1.895 3.929 3.371 6.34 4.438 c 2.406 1.066 4.933 1.597 7.585 1.597 c 1.61 0 3.071 -0.203 4.407 -0.558 c 1.328 -0.352 2.441 -0.789 3.383 -1.278 c 1.101 -0.543 2.046 -1.125 2.859 -1.785 v 18.543 h 12.496 V 79.3672 h -9.266 l -1.839 4.0859 c -0.993 -0.8437 -2.071 -1.6093 -3.235 -2.2851 c -1.047 -0.5782 -2.32 -1.1133 -3.808 -1.5625 c -1.477 -0.461 -3.145 -0.6836 -4.997 -0.6836 m -7.394 21.2731 c 0 -2.9567 0.883 -5.3473 2.676 -7.2067 c 1.789 -1.8438 3.968 -2.7461 6.57 -2.7461 c 2.602 0 4.789 0.9023 6.57 2.7461 c 1.801 1.8594 2.696 4.25 2.696 7.2067 c 0 2.957 -0.895 5.36 -2.696 7.196 c -1.781 1.843 -3.968 2.769 -6.57 2.769 c -2.602 0 -4.781 -0.926 -6.57 -2.769 c -1.793 -1.836 -2.676 -4.239 -2.676 -7.196" stroke-linecap="round"/>
</g>
		<g transform="matrix(0.1333 0 0 -0.1333 6.083 1.1468)" id="113568">
<path style="stroke: none; stroke-width: 1; stroke-dasharray: none; stroke-linecap: butt; stroke-dashoffset: 0; stroke-linejoin: miter; stroke-miterlimit: 4; is-custom-font: none; font-file-url: none; fill: rgb(32,49,94); fill-rule: evenodd; opacity: 1;" transform=" translate(-470.828, -100.1933)" d="m 490.734 91.5859 c -0.554 -1.6914 -1.39 -3.3007 -2.504 -4.875 c -1.113 -1.5859 -2.488 -2.9961 -4.171 -4.2265 c -1.661 -1.2422 -3.606 -2.2227 -5.774 -2.9453 c -2.203 -0.711 -4.68 -1.0664 -7.465 -1.0664 c -2.89 0 -5.625 0.5429 -8.175 1.6601 c -2.567 1.1094 -4.832 2.6719 -6.766 4.625 c -1.949 1.9649 -3.484 4.2461 -4.637 6.8867 c -1.137 2.6289 -1.703 5.4805 -1.703 8.5545 c 0 3.063 0.566 5.926 1.703 8.543 c 1.153 2.641 2.699 4.922 4.684 6.887 c 1.972 1.953 4.273 3.504 6.875 4.629 c 2.637 1.109 5.469 1.656 8.492 1.656 c 2.906 0 5.613 -0.5 8.141 -1.527 c 2.531 -1.02 4.746 -2.485 6.621 -4.391 c 1.886 -1.914 3.375 -4.199 4.425 -6.887 c 1.09 -2.683 1.637 -5.656 1.637 -8.91 c 0 -0.4842 -0.039 -0.9685 -0.109 -1.4177 c -0.035 -0.4532 -0.098 -0.8907 -0.16 -1.3047 c -0.071 -0.4844 -0.129 -0.9453 -0.192 -1.3477 h -29.16 c 0.496 -1.5859 1.488 -3.0273 3.012 -4.3437 c 1.504 -1.3477 3.437 -2 5.785 -2 c 1.16 0 2.164 0.1211 3.012 0.4023 c 0.824 0.2617 1.488 0.5938 1.984 0.9609 c 0.617 0.3438 1.09 0.8047 1.488 1.3477 z m -19.441 19.0161 c -2.348 0 -4.281 -0.664 -5.785 -2.024 c -1.524 -1.371 -2.516 -2.945 -3.012 -4.769 h 17.594 c -0.496 1.824 -1.5 3.398 -3.012 4.769 c -1.515 1.36 -3.437 2.024 -5.785 2.024" stroke-linecap="round"/>
</g>
		<g transform="matrix(0.1333 0 0 -0.1333 15.8342 0.1203)" id="472738">
<path style="stroke: none; stroke-width: 1; stroke-dasharray: none; stroke-linecap: butt; stroke-dashoffset: 0; stroke-linejoin: miter; stroke-miterlimit: 4; is-custom-font: none; font-file-url: none; fill: rgb(32,49,94); fill-rule: evenodd; opacity: 1;" transform=" translate(-543.963, -107.8904)" d="m 544.891 91.5859 c 3.711 0 6.617 0.8633 8.757 2.5899 c 2.118 1.7148 3.532 3.7148 4.2 6.0232 l 13.89 -0.9217 c -0.675 -2.6992 -1.793 -5.3007 -3.34 -7.7851 c -1.55 -2.4766 -3.449 -4.6172 -5.734 -6.4727 c -2.289 -1.8359 -4.926 -3.3164 -7.926 -4.4414 c -2.988 -1.0976 -6.269 -1.6523 -9.847 -1.6523 c -3.946 0 -7.672 0.7187 -11.161 2.1992 c -3.484 1.4805 -6.519 3.5391 -9.121 6.1758 c -2.589 2.6055 -4.656 5.668 -6.171 9.1719 c -1.512 3.5039 -2.25 7.3003 -2.25 11.4183 c 0 4.047 0.738 7.82 2.25 11.359 c 1.515 3.539 3.582 6.602 6.171 9.23 c 2.602 2.641 5.637 4.684 9.121 6.176 c 3.489 1.469 7.215 2.199 11.161 2.199 c 3.457 0 6.652 -0.55 9.582 -1.667 c 2.925 -1.11 5.527 -2.59 7.777 -4.426 c 2.25 -1.856 4.137 -4.012 5.688 -6.481 c 1.546 -2.472 2.66 -5.078 3.339 -7.801 l -13.89 -0.898 c -0.364 1.148 -0.895 2.238 -1.574 3.266 c -0.676 1.027 -1.559 1.929 -2.61 2.711 c -1.031 0.793 -2.254 1.406 -3.633 1.894 c -1.402 0.485 -2.949 0.746 -4.679 0.746 c -2.098 0 -4.078 -0.418 -5.918 -1.246 c -1.875 -0.805 -3.473 -1.937 -4.879 -3.394 c -1.379 -1.446 -2.481 -3.149 -3.278 -5.149 c -0.796 -1.988 -1.211 -4.176 -1.211 -6.519 c 0 -2.344 0.415 -4.532 1.211 -6.52 c 0.797 -1.9999 1.899 -3.703 3.278 -5.1601 c 1.406 -1.4453 3.004 -2.5781 4.879 -3.3945 c 1.84 -0.8164 3.82 -1.2305 5.918 -1.2305" stroke-linecap="round"/>
</g>
		<g transform="matrix(0.1333 0 0 -0.1333 21.327 -0.06)" id="600616">
<path style="stroke: none; stroke-width: 1; stroke-dasharray: none; stroke-linecap: butt; stroke-dashoffset: 0; stroke-linejoin: miter; stroke-miterlimit: 4; is-custom-font: none; font-file-url: none; fill: rgb(32,49,94); fill-rule: evenodd; opacity: 1;" transform=" translate(-585.1545, -109.2421)" d="m 578.223 132.332 c 0 1.809 0.687 3.395 2.078 4.754 c 1.39 1.359 3.012 2.035 4.855 2.035 c 1.864 0 3.469 -0.676 4.875 -2.035 c 1.379 -1.359 2.055 -2.945 2.055 -4.754 c 0 -1.801 -0.676 -3.387 -2.055 -4.746 c -1.406 -1.375 -3.011 -2.039 -4.875 -2.039 c -1.843 0 -3.465 0.664 -4.855 2.039 c -1.391 1.359 -2.078 2.945 -2.078 4.746 z m 0.457 -52.9687 h 12.5 v 41.6677 h -12.5 V 79.3633" stroke-linecap="round"/>
</g>
		<g transform="matrix(0.1333 0 0 -0.1333 26.08 0.0595)" id="387436">
<path style="stroke: none; stroke-width: 1; stroke-dasharray: none; stroke-linecap: butt; stroke-dashoffset: 0; stroke-linejoin: miter; stroke-miterlimit: 4; is-custom-font: none; font-file-url: none; fill: rgb(32,49,94); fill-rule: evenodd; opacity: 1;" transform=" translate(-620.805, -108.3458)" d="m 640.715 91.5859 c -0.559 -1.6914 -1.391 -3.3007 -2.504 -4.875 c -1.113 -1.5859 -2.508 -2.9961 -4.176 -4.2265 c -1.644 -1.2422 -3.594 -2.2227 -5.773 -2.9453 c -2.199 -0.711 -4.68 -1.0664 -7.461 -1.0664 c -2.906 0 -5.629 0.5429 -8.18 1.6601 c -2.566 1.1094 -4.828 2.6719 -6.766 4.625 c -1.949 1.9649 -3.496 4.2461 -4.632 6.8867 c -1.137 2.6289 -1.707 5.4805 -1.707 8.5545 c 0 3.063 0.57 5.926 1.707 8.543 c 1.136 2.641 2.695 4.922 4.683 6.887 c 1.973 1.953 4.27 3.504 6.883 4.629 c 2.625 1.109 5.457 1.656 8.481 1.656 c 2.906 0 5.605 -0.5 8.144 -1.527 c 2.527 -1.02 4.731 -2.485 6.617 -4.391 c 1.887 -1.914 3.364 -4.199 4.442 -6.887 c 1.078 -2.683 1.621 -5.656 1.621 -8.91 c 0 -0.4842 -0.035 -0.9685 -0.098 -1.4177 c -0.035 -0.4532 -0.109 -0.8907 -0.168 -1.3047 c -0.074 -0.4844 -0.133 -0.9453 -0.195 -1.3477 h -29.16 c 0.484 -1.5859 1.492 -3.0273 3.004 -4.3437 c 1.511 -1.3477 3.449 -2 5.793 -2 c 1.164 0 2.168 0.1211 3.015 0.4023 c 0.82 0.2617 1.488 0.5938 1.985 0.9609 c 0.605 0.3438 1.101 0.8047 1.484 1.3477 z m -14.36 34.8591 h -9.718 l -8.797 11.774 h 12.5 z m -5.085 -15.843 c -2.344 0 -4.282 -0.664 -5.793 -2.024 c -1.512 -1.371 -2.52 -2.945 -3.004 -4.769 h 17.582 c -0.485 1.824 -1.489 3.398 -3 4.769 c -1.516 1.36 -3.438 2.024 -5.785 2.024" stroke-linecap="round"/>
</g>
		<g transform="matrix(0.1333 0 0 -0.1333 32.5606 1.1168)" id="207785">
<path style="stroke: none; stroke-width: 1; stroke-dasharray: none; stroke-linecap: butt; stroke-dashoffset: 0; stroke-linejoin: miter; stroke-miterlimit: 4; is-custom-font: none; font-file-url: none; fill: rgb(32,49,94); fill-rule: evenodd; opacity: 1;" transform=" translate(-669.41, -100.4181)" d="m 672.652 121.469 c 2.532 0 4.84 -0.403 6.934 -1.231 c 2.105 -0.804 3.91 -1.976 5.422 -3.515 c 1.512 -1.539 2.687 -3.395 3.519 -5.575 c 0.836 -2.175 1.246 -4.625 1.246 -7.324 V 79.3672 h -12.5 v 22.1758 c 0 2.73 -0.722 4.852 -2.175 6.355 c -1.453 1.489 -3.34 2.247 -5.711 2.247 c -2.324 0 -4.223 -0.758 -5.664 -2.247 c -1.45 -1.503 -2.188 -3.625 -2.188 -6.355 V 79.3672 H 649.047 V 121.02 h 9.242 l 1.867 -4.086 c 0.977 0.839 2.129 1.609 3.422 2.285 c 1.113 0.523 2.434 1.031 3.981 1.515 c 1.535 0.485 3.242 0.735 5.093 0.735" stroke-linecap="round"/>
</g>
		<g transform="matrix(0.1333 0 0 -0.1333 39.0104 1.1476)" id="287975">
<path style="stroke: none; stroke-width: 1; stroke-dasharray: none; stroke-linecap: butt; stroke-dashoffset: 0; stroke-linejoin: miter; stroke-miterlimit: 4; is-custom-font: none; font-file-url: none; fill: rgb(32,49,94); fill-rule: evenodd; opacity: 1;" transform=" translate(-717.7835, -100.1875)" d="m 718.477 121.918 c 2.089 0 4.003 -0.223 5.746 -0.688 c 1.715 -0.449 3.265 -1.054 4.621 -1.843 c 1.355 -0.782 2.543 -1.66 3.558 -2.629 c 1.016 -0.969 1.911 -1.965 2.637 -2.981 c 1.742 -2.425 3 -5.136 3.809 -8.152 l -12.508 -0.902 c -0.434 1.09 -0.992 2.062 -1.66 2.886 c -0.617 0.739 -1.438 1.411 -2.453 2.051 c -1.016 0.637 -2.278 0.945 -3.75 0.945 c -2.59 0 -4.793 -0.933 -6.571 -2.804 c -1.793 -1.883 -2.699 -4.403 -2.699 -7.61 c 0 -3.1949 0.906 -5.7262 2.699 -7.6051 c 1.778 -1.8711 3.981 -2.8046 6.571 -2.8046 c 1.472 0 2.734 0.3046 3.75 0.8984 c 1.015 0.6016 1.836 1.2773 2.453 1.9883 c 0.668 0.8633 1.226 1.8554 1.66 2.9922 l 12.508 -0.8985 c -0.809 -3.0273 -2.067 -5.7265 -3.809 -8.1406 c -0.726 -1.0313 -1.621 -2.0234 -2.637 -2.9961 c -1.015 -0.957 -2.203 -1.8437 -3.558 -2.625 c -1.356 -0.7812 -2.906 -1.3984 -4.621 -1.8594 c -1.743 -0.4492 -3.657 -0.6836 -5.746 -0.6836 c -3.028 0 -5.848 0.5664 -8.469 1.6914 c -2.629 1.1016 -4.926 2.6407 -6.91 4.6016 c -1.973 1.9531 -3.52 4.2734 -4.66 6.875 c -1.149 2.625 -1.719 5.4766 -1.719 8.566 c 0 3.09 0.57 5.93 1.719 8.571 c 1.14 2.601 2.687 4.91 4.66 6.875 c 1.984 1.961 4.281 3.5 6.91 4.601 c 2.621 1.121 5.441 1.68 8.469 1.68" stroke-linecap="round"/>
</g>
		<g transform="matrix(0.1333 0 0 -0.1333 43.6692 -0.06)" id="501470">
<path style="stroke: none; stroke-width: 1; stroke-dasharray: none; stroke-linecap: butt; stroke-dashoffset: 0; stroke-linejoin: miter; stroke-miterlimit: 4; is-custom-font: none; font-file-url: none; fill: rgb(32,49,94); fill-rule: evenodd; opacity: 1;" transform=" translate(-752.7205, -109.2421)" d="m 745.781 132.332 c 0 1.809 0.703 3.395 2.094 4.754 c 1.375 1.359 3 2.035 4.852 2.035 c 1.863 0 3.472 -0.676 4.863 -2.035 c 1.39 -1.359 2.07 -2.945 2.07 -4.754 c 0 -1.801 -0.68 -3.387 -2.07 -4.746 c -1.391 -1.375 -3 -2.039 -4.863 -2.039 c -1.852 0 -3.477 0.664 -4.852 2.039 c -1.391 1.359 -2.094 2.945 -2.094 4.746 z m 0.461 -52.9687 h 12.496 V 121.031 H 746.242 V 79.3633" stroke-linecap="round"/>
</g>
		<g transform="matrix(0.1333 0 0 -0.1333 48.4224 1.1468)" id="759726">
<path style="stroke: none; stroke-width: 1; stroke-dasharray: none; stroke-linecap: butt; stroke-dashoffset: 0; stroke-linejoin: miter; stroke-miterlimit: 4; is-custom-font: none; font-file-url: none; fill: rgb(32,49,94); fill-rule: evenodd; opacity: 1;" transform=" translate(-788.373, -100.1933)" d="m 808.273 91.5859 c -0.554 -1.6914 -1.39 -3.3007 -2.503 -4.875 c -1.114 -1.5859 -2.493 -2.9961 -4.161 -4.2265 c -1.66 -1.2422 -3.593 -2.2227 -5.785 -2.9453 c -2.191 -0.711 -4.668 -1.0664 -7.465 -1.0664 c -2.89 0 -5.613 0.5429 -8.175 1.6601 c -2.567 1.1094 -4.821 2.6719 -6.766 4.625 c -1.949 1.9649 -3.484 4.2461 -4.637 6.8867 c -1.125 2.6289 -1.703 5.4805 -1.703 8.5545 c 0 3.063 0.578 5.926 1.703 8.543 c 1.153 2.641 2.711 4.922 4.684 6.887 c 1.973 1.953 4.281 3.504 6.898 4.629 c 2.625 1.109 5.457 1.656 8.481 1.656 c 2.894 0 5.601 -0.5 8.129 -1.527 c 2.531 -1.02 4.746 -2.485 6.621 -4.391 c 1.898 -1.914 3.375 -4.199 4.441 -6.887 c 1.086 -2.683 1.633 -5.656 1.633 -8.91 c 0 -0.4842 -0.039 -0.9685 -0.098 -1.4177 c -0.058 -0.4532 -0.121 -0.8907 -0.183 -1.3047 c -0.059 -0.4844 -0.129 -0.9453 -0.192 -1.3477 h -29.16 c 0.496 -1.5859 1.5 -3.0273 3.012 -4.3437 c 1.516 -1.3477 3.437 -2 5.797 -2 c 1.164 0 2.164 0.1211 3 0.4023 c 0.836 0.2617 1.504 0.5938 1.996 0.9609 c 0.605 0.3438 1.101 0.8047 1.476 1.3477 z m -19.429 19.0161 c -2.36 0 -4.281 -0.664 -5.797 -2.024 c -1.512 -1.371 -2.516 -2.945 -3.012 -4.769 h 17.594 c -0.496 1.824 -1.504 3.398 -3.012 4.769 c -1.515 1.36 -3.437 2.024 -5.773 2.024" stroke-linecap="round"/>
</g>
		<g transform="matrix(0.1333 0 0 -0.1333 54.3159 1.1463)" id="396021">
<path style="stroke: none; stroke-width: 1; stroke-dasharray: none; stroke-linecap: butt; stroke-dashoffset: 0; stroke-linejoin: miter; stroke-miterlimit: 4; is-custom-font: none; font-file-url: none; fill: rgb(32,49,94); fill-rule: evenodd; opacity: 1;" transform=" translate(-832.574, -100.1974)" d="m 826.789 92.9492 c 0.254 -1.3867 0.836 -2.4883 1.766 -3.3008 c 0.922 -0.8203 2.179 -1.2187 3.789 -1.2187 c 1.609 0 2.855 0.3672 3.75 1.1211 c 0.898 0.7578 1.344 1.5898 1.344 2.5 c 0 0.7187 -0.543 1.3125 -1.622 1.7617 c -1.078 0.4492 -2.421 0.8984 -4.031 1.3477 c -1.609 0.4648 -3.336 0.9961 -5.234 1.5976 c -1.875 0.6055 -3.61 1.3985 -5.219 2.3906 c -1.609 0.9966 -2.953 2.3086 -4.027 3.9416 c -1.078 1.633 -1.621 3.68 -1.621 6.152 c 0 1.692 0.363 3.313 1.113 4.852 c 0.723 1.539 1.805 2.875 3.191 4.023 c 1.395 1.149 3.075 2.071 5.082 2.758 c 2.008 0.695 4.285 1.055 6.813 1.055 c 5.555 0 9.777 -1.211 12.68 -3.621 c 2.906 -2.43 4.683 -5.434 5.371 -9.067 l -12.036 -0.898 c -0.253 0.898 -0.789 1.726 -1.671 2.484 c -0.86 0.758 -2.008 1.137 -3.422 1.137 c -1.418 0 -2.469 -0.297 -3.149 -0.91 c -0.676 -0.606 -1.015 -1.352 -1.015 -2.262 c 0 -0.781 0.531 -1.383 1.621 -1.813 c 1.078 -0.425 2.422 -0.863 4.027 -1.312 c 1.602 -0.449 3.34 -0.98 5.231 -1.586 c 1.886 -0.602 3.64 -1.394 5.226 -2.402 c 1.609 -0.992 2.953 -2.305 4.031 -3.9261 c 1.075 -1.6328 1.621 -3.6914 1.621 -6.168 c 0 -1.6796 -0.39 -3.3125 -1.164 -4.8867 c -0.761 -1.5742 -1.898 -2.9687 -3.375 -4.2109 c -1.476 -1.2305 -3.281 -2.2149 -5.41 -2.9375 c -2.14 -0.7188 -4.523 -1.086 -7.187 -1.086 c -5.793 0 -10.164 1.2305 -13.09 3.7149 c -2.926 2.4726 -4.731 5.7656 -5.422 9.8711 l 12.039 0.8984" stroke-linecap="round"/>
</g>
		<g transform="matrix(0.1333 0 0 -0.1333 -0.6149 10.6133)" id="403389">
<path style="stroke: none; stroke-width: 1; stroke-dasharray: none; stroke-linecap: butt; stroke-dashoffset: 0; stroke-linejoin: miter; stroke-miterlimit: 4; is-custom-font: none; font-file-url: none; fill: rgb(32,49,94); fill-rule: evenodd; opacity: 1;" transform=" translate(-420.594, -29.1934)" d="m 418.98 0.445313 c -2.652 0 -5.179 0.519531 -7.585 1.585937 c -2.411 1.05078 -4.528 2.53125 -6.34 4.4375 c -1.828 1.89063 -3.282 4.14065 -4.36 6.74215 c -1.074 2.5938 -1.632 5.4336 -1.632 8.5079 c 0 3.0898 0.558 5.9179 1.632 8.5234 c 1.078 2.5898 2.532 4.8359 4.36 6.7305 c 1.812 1.9062 3.929 3.3867 6.34 4.4375 c 2.406 1.0664 4.933 1.5859 7.585 1.5859 c 1.61 0 3.071 -0.1758 4.407 -0.543 c 1.328 -0.3554 2.441 -0.7812 3.383 -1.2656 c 1.101 -0.5469 2.046 -1.1484 2.859 -1.8125 v 18.5664 h 12.496 V 0.90625 h -9.266 L 431.02 4.97656 C 430.027 4.125 428.949 3.37891 427.785 2.70313 C 426.738 2.10156 425.465 1.58203 423.977 1.13281 C 422.5 0.667969 420.832 0.445313 418.98 0.445313 M 411.586 21.7188 c 0 -2.9571 0.883 -5.3477 2.676 -7.1954 c 1.789 -1.8437 3.968 -2.7539 6.57 -2.7539 c 2.602 0 4.789 0.9102 6.57 2.7539 c 1.801 1.8477 2.696 4.2383 2.696 7.1954 c 0 2.9609 -0.895 5.3632 -2.696 7.207 c -1.781 1.8359 -3.968 2.7578 -6.57 2.7578 c -2.602 0 -4.781 -0.9219 -6.57 -2.7578 c -1.793 -1.8438 -2.676 -4.2461 -2.676 -7.207" stroke-linecap="round"/>
</g>
		<g transform="matrix(0.1333 0 0 -0.1333 6.083 11.6093)" id="136048">
<path style="stroke: none; stroke-width: 1; stroke-dasharray: none; stroke-linecap: butt; stroke-dashoffset: 0; stroke-linejoin: miter; stroke-miterlimit: 4; is-custom-font: none; font-file-url: none; fill: rgb(32,49,94); fill-rule: evenodd; opacity: 1;" transform=" translate(-470.828, -21.7246)" d="M 490.734 13.1211 C 490.18 11.4297 489.344 9.79688 488.23 8.23438 C 487.117 6.66016 485.742 5.25391 484.059 4.02344 C 482.398 2.78125 480.453 1.79688 478.285 1.07422 C 476.082 0.351563 473.605 0 470.82 0 c -2.89 0 -5.625 0.554688 -8.175 1.66797 c -2.567 1.11328 -4.832 2.64844 -6.766 4.61328 c -1.949 1.96484 -3.484 4.25785 -4.637 6.88675 c -1.137 2.6289 -1.703 5.4804 -1.703 8.5586 c 0 3.0742 0.566 5.9257 1.703 8.5547 c 1.153 2.625 2.699 4.9218 4.684 6.8867 c 1.972 1.9531 4.273 3.4883 6.875 4.6133 c 2.637 1.1093 5.469 1.6679 8.492 1.6679 c 2.906 0 5.613 -0.5078 8.141 -1.539 c 2.531 -1.0157 4.746 -2.4844 6.621 -4.3907 c 1.886 -1.9023 3.375 -4.1875 4.425 -6.8867 c 1.09 -2.6836 1.637 -5.6562 1.637 -8.9062 c 0 -0.4883 -0.039 -0.961 -0.109 -1.4102 c -0.035 -0.4492 -0.098 -0.8867 -0.16 -1.3008 c -0.071 -0.4843 -0.129 -0.9492 -0.192 -1.3633 h -29.16 c 0.496 -1.5703 1.488 -3.0273 3.012 -4.3398 c 1.504 -1.3398 3.437 -2.0039 5.785 -2.0039 c 1.16 0 2.164 0.1328 3.012 0.4023 c 0.824 0.2735 1.488 0.5938 1.984 0.961 c 0.617 0.3554 1.09 0.8164 1.488 1.3594 z m -19.441 19.0156 c -2.348 0 -4.281 -0.6836 -5.785 -2.0351 c -1.524 -1.3594 -2.516 -2.9453 -3.012 -4.7578 h 17.594 c -0.496 1.8125 -1.5 3.3984 -3.012 4.7578 c -1.515 1.3515 -3.437 2.0351 -5.785 2.0351" stroke-linecap="round"/>
</g>
		<g transform="matrix(0.1333 0 0 -0.1333 10.6815 10.5835)" id="889404">
<path style="stroke: none; stroke-width: 1; stroke-dasharray: none; stroke-linecap: butt; stroke-dashoffset: 0; stroke-linejoin: miter; stroke-miterlimit: 4; is-custom-font: none; font-file-url: none; fill: rgb(32,49,94); fill-rule: evenodd; opacity: 1;" transform=" translate(-505.313, -29.416)" d="m 499.063 0.898438 h 12.5 V 57.9336 h -12.5 V 0.898438" stroke-linecap="round"/>
</g>
		<g transform="matrix(0.1333 0 0 -0.1333 19.845 10.5823)" id="696629">
<path style="stroke: none; stroke-width: 1; stroke-dasharray: none; stroke-linecap: butt; stroke-dashoffset: 0; stroke-linejoin: miter; stroke-miterlimit: 4; is-custom-font: none; font-file-url: none; fill: rgb(32,49,94); fill-rule: evenodd; opacity: 1;" transform=" translate(-574.045, -29.4258)" d="m 593.031 57.9453 l -18.984 -40.293 l -18.973 40.293 H 543.035 V 0.90625 h 13.418 V 29.4258 l 13.43 -28.51955 h 8.336 L 591.648 29.4258 V 0.90625 h 13.407 V 57.9453 h -12.024" stroke-linecap="round"/>
</g>
		<g transform="matrix(0.1333 0 0 -0.1333 27.6212 11.5793)" id="455394">
<path style="stroke: none; stroke-width: 1; stroke-dasharray: none; stroke-linecap: butt; stroke-dashoffset: 0; stroke-linejoin: miter; stroke-miterlimit: 4; is-custom-font: none; font-file-url: none; fill: rgb(32,49,94); fill-rule: evenodd; opacity: 1;" transform=" translate(-632.3635, -21.9492)" d="m 633.766 43.457 c 2.531 0 4.867 -0.4179 7.031 -1.2695 c 2.164 -0.8516 4.027 -2.0312 5.601 -3.5703 c 1.575 -1.5391 2.782 -3.3633 3.668 -5.4805 c 0.86 -2.1289 1.282 -4.4023 1.282 -6.8867 V 0.890625 h -9.27 l -1.836 4.085935 c -1.054 -0.84375 -2.215 -1.60937 -3.523 -2.26172 c -1.114 -0.60546 -2.418 -1.13671 -3.934 -1.58593 c -1.508 -0.449222 -3.191 -0.687504 -5.043 -0.687504 c -4.625 0 -8.179 1.113284 -10.648 3.316404 c -2.469 2.19922 -3.715 5.01563 -3.715 8.44529 c 0 2.0625 0.437 3.9414 1.269 5.6797 c 0.825 1.707 2.227 3.1836 4.211 4.4297 c 1.973 1.2266 4.575 2.1992 7.817 2.8828 c 3.258 0.711 7.308 1.0547 12.183 1.0547 c 0 2.0586 -0.531 3.6328 -1.582 4.6992 c -1.043 1.086 -2.375 1.6328 -3.968 1.6328 c -1.188 0 -2.118 -0.2148 -2.821 -0.6757 c -0.726 -0.461 -1.297 -0.9219 -1.718 -1.4102 c -0.497 -0.6016 -0.832 -1.25 -1.028 -1.9883 l -12.488 0.9024 c 0.363 2.0586 1.016 3.9414 1.937 5.6679 c 0.934 1.7266 2.153 3.2071 3.664 4.4375 c 1.516 1.2305 3.344 2.211 5.504 2.8867 c 2.145 0.711 4.637 1.0547 7.407 1.0547 m -2.77 -33.94919 c 2.336 0 4.234 0.69529 5.688 2.12889 c 1.441 1.418 2.175 3.2656 2.175 5.5508 v 1.832 c -2.66 0 -4.839 -0.1406 -6.531 -0.4257 c -1.695 -0.2579 -3.023 -0.6368 -3.98 -1.125 c -0.957 -0.4727 -1.61 -1.0508 -1.938 -1.7266 c -0.347 -0.6484 -0.508 -1.375 -0.508 -2.1641 c 0 -1.1484 0.446 -2.1054 1.332 -2.914 c 0.895 -0.78129 2.153 -1.15629 3.762 -1.15629" stroke-linecap="round"/>
</g>
		<g transform="matrix(0.1333 0 0 -0.1333 32.9924 11.5804)" id="940937">
<path style="stroke: none; stroke-width: 1; stroke-dasharray: none; stroke-linecap: butt; stroke-dashoffset: 0; stroke-linejoin: miter; stroke-miterlimit: 4; is-custom-font: none; font-file-url: none; fill: rgb(32,49,94); fill-rule: evenodd; opacity: 1;" transform=" translate(-672.6465, -21.9414)" d="m 681.445 42.9922 c 0.555 0 1.063 -0.0234 1.524 -0.082 c 0.461 -0.0704 0.847 -0.1289 1.16 -0.1797 c 0.363 -0.0586 0.703 -0.1172 1.016 -0.1758 V 29.8828 c -0.372 0.1055 -0.809 0.2617 -1.305 0.4492 c -0.422 0.1055 -0.922 0.211 -1.477 0.3086 c -0.554 0.0938 -1.175 0.1407 -1.851 0.1407 c -2.348 0 -4.246 -0.7696 -5.699 -2.2735 c -1.442 -1.5156 -2.176 -3.6094 -2.176 -6.3398 V 0.890625 H 660.148 V 42.5547 h 9.258 l 1.852 -4.543 c 0.734 0.9102 1.633 1.7383 2.683 2.4492 c 0.86 0.6719 1.926 1.2657 3.207 1.7735 c 1.247 0.5078 2.684 0.7578 4.297 0.7578" stroke-linecap="round"/>
</g>
		<g transform="matrix(0.1333 0 0 -0.1333 -39.1653 -3.7621)" id="957069">
<path style="stroke: none; stroke-width: 1; stroke-dasharray: none; stroke-linecap: butt; stroke-dashoffset: 0; stroke-linejoin: miter; stroke-miterlimit: 4; is-custom-font: none; font-file-url: none; fill: rgb(42,61,143); fill-rule: evenodd; opacity: 1;" transform=" translate(-131.4707, -136.996)" d="m 145.254 137.047 c 0.035 12.922 10.332 23.391 23.375 24.242 h 5.746 v 54.289 h -5.285 h -0.145 h -0.57 C 124.297 215.203 88.6797 180.234 88.5938 137.152 h -0.0274 v -0.082 v -0.086 h 0.0274 C 88.6797 93.7617 124.309 58.7227 168.363 58.4141 h 6.012 v 54.2889 h -5.852 c -12.96 0.879 -23.234 11.36 -23.269 24.297 v 0.031 v 0.016" stroke-linecap="round"/>
</g>
		<g transform="matrix(0.1333 0 0 -0.1333 -20.7236 -3.7629)" id="52920">
<path style="stroke: none; stroke-width: 1; stroke-dasharray: none; stroke-linecap: butt; stroke-dashoffset: 0; stroke-linejoin: miter; stroke-miterlimit: 4; is-custom-font: none; font-file-url: none; fill: rgb(42,61,143); fill-rule: evenodd; opacity: 1;" transform=" translate(-269.793, -137.0019)" d="m 269.805 137.148 v 78.43 c -44.418 0 -80.41 -35.109 -80.496 -78.43 h -0.012 V 58.4258 h 80.508 h 80.484 v 78.4292 v 0.293 v 78.43 c -44.402 0 -80.375 -35.109 -80.484 -78.43" stroke-linecap="round"/>
</g>
		<g transform="matrix(0.1333 0 0 -0.1333 -51.6256 -3.7616)" id="200592">
<path style="stroke: none; stroke-width: 1; stroke-dasharray: none; stroke-linecap: butt; stroke-dashoffset: 0; stroke-linejoin: miter; stroke-miterlimit: 4; is-custom-font: none; font-file-url: none; fill: rgb(42,61,143); fill-rule: evenodd; opacity: 1;" transform=" translate(-38.0176, -136.9921)" d="M 0.0117188 137.219 H 0 V 58.4102 H 76.0352 V 215.574 C 33.6992 213.281 0.109375 179.082 0.0117188 137.219" stroke-linecap="round"/>
</g>
</g>
</g>
</svg>